<mxfile host="65bd71144e">
    <diagram name="Page-1" id="9f46799a-70d6-7492-0946-bef42562c5a5">
        <mxGraphModel dx="752" dy="393" grid="1" gridSize="10" guides="1" tooltips="1" connect="1" arrows="1" fold="1" page="1" pageScale="1" pageWidth="1100" pageHeight="850" background="none" math="0" shadow="0">
            <root>
                <mxCell id="0"/>
                <mxCell id="1" parent="0"/>
                <mxCell id="78961159f06e98e8-17" value="Recipe" style="swimlane;html=1;fontStyle=1;align=center;verticalAlign=top;childLayout=stackLayout;horizontal=1;startSize=26;horizontalStack=0;resizeParent=1;resizeLast=0;collapsible=1;marginBottom=0;swimlaneFillColor=#ffffff;rounded=0;shadow=0;comic=0;labelBackgroundColor=#B5B5B5;strokeWidth=1;fillColor=#FFFFFF;fontFamily=Verdana;fontSize=12;labelBorderColor=none;fontColor=#000000;whiteSpace=wrap;strokeColor=#636363;" parent="1" vertex="1">
                    <mxGeometry x="320" y="110" width="160" height="270" as="geometry"/>
                </mxCell>
                <mxCell id="78961159f06e98e8-21" value="id" style="text;html=1;strokeColor=#636363;fillColor=#FFFFFF;align=left;verticalAlign=top;spacingLeft=4;spacingRight=4;overflow=hidden;rotatable=0;points=[[0,0.5],[1,0.5]];portConstraint=eastwest;labelBorderColor=none;labelBackgroundColor=#B5B5B5;fontColor=#000000;whiteSpace=wrap;shadow=0;" parent="78961159f06e98e8-17" vertex="1">
                    <mxGeometry y="26" width="160" height="26" as="geometry"/>
                </mxCell>
                <mxCell id="tTol9lg7dFnoX-hlyUY5-7" value="name" style="text;html=1;strokeColor=#636363;fillColor=#FFFFFF;align=left;verticalAlign=top;spacingLeft=4;spacingRight=4;overflow=hidden;rotatable=0;points=[[0,0.5],[1,0.5]];portConstraint=eastwest;labelBorderColor=none;labelBackgroundColor=#B5B5B5;fontColor=#000000;whiteSpace=wrap;shadow=0;" parent="78961159f06e98e8-17" vertex="1">
                    <mxGeometry y="52" width="160" height="26" as="geometry"/>
                </mxCell>
                <mxCell id="78961159f06e98e8-23" value="image" style="text;html=1;strokeColor=#636363;fillColor=#FFFFFF;align=left;verticalAlign=top;spacingLeft=4;spacingRight=4;overflow=hidden;rotatable=0;points=[[0,0.5],[1,0.5]];portConstraint=eastwest;labelBorderColor=none;labelBackgroundColor=#B5B5B5;fontColor=#000000;whiteSpace=wrap;shadow=0;" parent="78961159f06e98e8-17" vertex="1">
                    <mxGeometry y="78" width="160" height="26" as="geometry"/>
                </mxCell>
                <mxCell id="78961159f06e98e8-25" value="cooking_time" style="text;html=1;strokeColor=#636363;fillColor=#FFFFFF;align=left;verticalAlign=top;spacingLeft=4;spacingRight=4;overflow=hidden;rotatable=0;points=[[0,0.5],[1,0.5]];portConstraint=eastwest;labelBorderColor=none;labelBackgroundColor=#B5B5B5;fontColor=#000000;whiteSpace=wrap;shadow=0;" parent="78961159f06e98e8-17" vertex="1">
                    <mxGeometry y="104" width="160" height="26" as="geometry"/>
                </mxCell>
                <mxCell id="78961159f06e98e8-26" value="text" style="text;html=1;strokeColor=#636363;fillColor=#FFFFFF;align=left;verticalAlign=top;spacingLeft=4;spacingRight=4;overflow=hidden;rotatable=0;points=[[0,0.5],[1,0.5]];portConstraint=eastwest;labelBorderColor=none;labelBackgroundColor=#B5B5B5;fontColor=#000000;whiteSpace=wrap;shadow=0;" parent="78961159f06e98e8-17" vertex="1">
                    <mxGeometry y="130" width="160" height="26" as="geometry"/>
                </mxCell>
                <mxCell id="78961159f06e98e8-24" value="author=ForeignKey(User)" style="text;html=1;strokeColor=#636363;fillColor=#FFFFFF;align=left;verticalAlign=top;spacingLeft=4;spacingRight=4;overflow=hidden;rotatable=0;points=[[0,0.5],[1,0.5]];portConstraint=eastwest;labelBorderColor=none;labelBackgroundColor=#B5B5B5;fontColor=#000000;whiteSpace=wrap;shadow=0;" parent="78961159f06e98e8-17" vertex="1">
                    <mxGeometry y="156" width="160" height="26" as="geometry"/>
                </mxCell>
                <mxCell id="ghc3xlel7lcxxB09unH8-13" value="tags=ManyToMany(Tag)" style="text;html=1;strokeColor=#636363;fillColor=#FFFFFF;align=left;verticalAlign=top;spacingLeft=4;spacingRight=4;overflow=hidden;rotatable=0;points=[[0,0.5],[1,0.5]];portConstraint=eastwest;labelBorderColor=none;labelBackgroundColor=#B5B5B5;fontColor=#000000;whiteSpace=wrap;shadow=0;" parent="78961159f06e98e8-17" vertex="1">
                    <mxGeometry y="182" width="160" height="26" as="geometry"/>
                </mxCell>
                <mxCell id="ghc3xlel7lcxxB09unH8-17" value="ingredients = ManyToMany(Ingredient,&lt;br&gt;through = Sum_ingredients)" style="text;html=1;strokeColor=#636363;fillColor=#FFFFFF;align=left;verticalAlign=top;spacingLeft=4;spacingRight=4;overflow=hidden;rotatable=0;points=[[0,0.5],[1,0.5]];portConstraint=eastwest;labelBorderColor=none;labelBackgroundColor=#B5B5B5;fontColor=#000000;whiteSpace=wrap;shadow=0;" parent="78961159f06e98e8-17" vertex="1">
                    <mxGeometry y="208" width="160" height="62" as="geometry"/>
                </mxCell>
                <mxCell id="78961159f06e98e8-30" value="Tag" style="swimlane;html=1;fontStyle=1;align=center;verticalAlign=top;childLayout=stackLayout;horizontal=1;startSize=26;horizontalStack=0;resizeParent=1;resizeLast=0;collapsible=1;marginBottom=0;swimlaneFillColor=#ffffff;rounded=0;shadow=0;comic=0;labelBackgroundColor=#B5B5B5;strokeWidth=1;fillColor=#FFFFFF;fontFamily=Verdana;fontSize=12;labelBorderColor=none;fontColor=#000000;whiteSpace=wrap;strokeColor=#636363;" parent="1" vertex="1">
                    <mxGeometry x="80" y="110" width="170" height="130" as="geometry"/>
                </mxCell>
                <mxCell id="78961159f06e98e8-31" value="name" style="text;html=1;strokeColor=#636363;fillColor=#FFFFFF;align=left;verticalAlign=top;spacingLeft=4;spacingRight=4;overflow=hidden;rotatable=0;points=[[0,0.5],[1,0.5]];portConstraint=eastwest;labelBorderColor=none;labelBackgroundColor=#B5B5B5;fontColor=#000000;whiteSpace=wrap;shadow=0;" parent="78961159f06e98e8-30" vertex="1">
                    <mxGeometry y="26" width="170" height="26" as="geometry"/>
                </mxCell>
                <mxCell id="78961159f06e98e8-32" value="color" style="text;html=1;strokeColor=#636363;fillColor=#FFFFFF;align=left;verticalAlign=top;spacingLeft=4;spacingRight=4;overflow=hidden;rotatable=0;points=[[0,0.5],[1,0.5]];portConstraint=eastwest;labelBorderColor=none;labelBackgroundColor=#B5B5B5;fontColor=#000000;whiteSpace=wrap;shadow=0;" parent="78961159f06e98e8-30" vertex="1">
                    <mxGeometry y="52" width="170" height="26" as="geometry"/>
                </mxCell>
                <mxCell id="78961159f06e98e8-33" value="slug" style="text;html=1;strokeColor=#636363;fillColor=#FFFFFF;align=left;verticalAlign=top;spacingLeft=4;spacingRight=4;overflow=hidden;rotatable=0;points=[[0,0.5],[1,0.5]];portConstraint=eastwest;labelBorderColor=none;labelBackgroundColor=#B5B5B5;fontColor=#000000;whiteSpace=wrap;shadow=0;" parent="78961159f06e98e8-30" vertex="1">
                    <mxGeometry y="78" width="170" height="26" as="geometry"/>
                </mxCell>
                <mxCell id="78961159f06e98e8-43" value="Ingredient" style="swimlane;html=1;fontStyle=1;align=center;verticalAlign=top;childLayout=stackLayout;horizontal=1;startSize=26;horizontalStack=0;resizeParent=1;resizeLast=0;collapsible=1;marginBottom=0;swimlaneFillColor=#ffffff;rounded=0;shadow=0;comic=0;labelBackgroundColor=#B5B5B5;strokeWidth=1;fillColor=#FFFFFF;fontFamily=Verdana;fontSize=12;labelBorderColor=none;fontColor=#000000;whiteSpace=wrap;strokeColor=#636363;" parent="1" vertex="1">
                    <mxGeometry x="800" y="110" width="160" height="120" as="geometry"/>
                </mxCell>
                <mxCell id="78961159f06e98e8-44" value="name" style="text;html=1;strokeColor=#636363;fillColor=#FFFFFF;align=left;verticalAlign=top;spacingLeft=4;spacingRight=4;overflow=hidden;rotatable=0;points=[[0,0.5],[1,0.5]];portConstraint=eastwest;labelBorderColor=none;labelBackgroundColor=#B5B5B5;fontColor=#000000;whiteSpace=wrap;shadow=0;" parent="78961159f06e98e8-43" vertex="1">
                    <mxGeometry y="26" width="160" height="26" as="geometry"/>
                </mxCell>
                <mxCell id="78961159f06e98e8-45" value="measurment_unit" style="text;html=1;strokeColor=#636363;fillColor=#FFFFFF;align=left;verticalAlign=top;spacingLeft=4;spacingRight=4;overflow=hidden;rotatable=0;points=[[0,0.5],[1,0.5]];portConstraint=eastwest;labelBorderColor=none;labelBackgroundColor=#B5B5B5;fontColor=#000000;whiteSpace=wrap;shadow=0;" parent="78961159f06e98e8-43" vertex="1">
                    <mxGeometry y="52" width="160" height="26" as="geometry"/>
                </mxCell>
                <mxCell id="78961159f06e98e8-56" value="User" style="swimlane;html=1;fontStyle=1;align=center;verticalAlign=top;childLayout=stackLayout;horizontal=1;startSize=26;horizontalStack=0;resizeParent=1;resizeLast=0;collapsible=1;marginBottom=0;swimlaneFillColor=#ffffff;rounded=0;shadow=0;comic=0;labelBackgroundColor=#B5B5B5;strokeWidth=1;fillColor=#FFFFFF;fontFamily=Verdana;fontSize=12;labelBorderColor=none;fontColor=#000000;whiteSpace=wrap;strokeColor=#636363;" parent="1" vertex="1">
                    <mxGeometry x="80" y="307" width="160" height="294" as="geometry"/>
                </mxCell>
                <mxCell id="78961159f06e98e8-57" value="id" style="text;html=1;strokeColor=#636363;fillColor=#FFFFFF;align=left;verticalAlign=top;spacingLeft=4;spacingRight=4;overflow=hidden;rotatable=0;points=[[0,0.5],[1,0.5]];portConstraint=eastwest;labelBorderColor=none;labelBackgroundColor=#B5B5B5;fontColor=#000000;whiteSpace=wrap;shadow=0;" parent="78961159f06e98e8-56" vertex="1">
                    <mxGeometry y="26" width="160" height="26" as="geometry"/>
                </mxCell>
                <mxCell id="lTvlNWa3KyWWzM1s08XT-5" value="&amp;nbsp;username&amp;nbsp;" style="text;html=1;strokeColor=#636363;fillColor=#FFFFFF;align=left;verticalAlign=top;spacingLeft=4;spacingRight=4;overflow=hidden;rotatable=0;points=[[0,0.5],[1,0.5]];portConstraint=eastwest;labelBorderColor=none;labelBackgroundColor=#B5B5B5;fontColor=#000000;whiteSpace=wrap;shadow=0;" parent="78961159f06e98e8-56" vertex="1">
                    <mxGeometry y="52" width="160" height="26" as="geometry"/>
                </mxCell>
                <mxCell id="78961159f06e98e8-58" value="email&lt;br&gt;" style="text;html=1;strokeColor=#636363;fillColor=#FFFFFF;align=left;verticalAlign=top;spacingLeft=4;spacingRight=4;overflow=hidden;rotatable=0;points=[[0,0.5],[1,0.5]];portConstraint=eastwest;labelBorderColor=none;labelBackgroundColor=#B5B5B5;fontColor=#000000;whiteSpace=wrap;shadow=0;" parent="78961159f06e98e8-56" vertex="1">
                    <mxGeometry y="78" width="160" height="26" as="geometry"/>
                </mxCell>
                <mxCell id="78961159f06e98e8-59" value="first_name" style="text;html=1;strokeColor=#636363;fillColor=#FFFFFF;align=left;verticalAlign=top;spacingLeft=4;spacingRight=4;overflow=hidden;rotatable=0;points=[[0,0.5],[1,0.5]];portConstraint=eastwest;labelBorderColor=none;labelBackgroundColor=#B5B5B5;fontColor=#000000;whiteSpace=wrap;shadow=0;" parent="78961159f06e98e8-56" vertex="1">
                    <mxGeometry y="104" width="160" height="26" as="geometry"/>
                </mxCell>
                <mxCell id="78961159f06e98e8-60" value="last_name" style="text;html=1;strokeColor=#636363;fillColor=#FFFFFF;align=left;verticalAlign=top;spacingLeft=4;spacingRight=4;overflow=hidden;rotatable=0;points=[[0,0.5],[1,0.5]];portConstraint=eastwest;labelBorderColor=none;labelBackgroundColor=#B5B5B5;fontColor=#000000;whiteSpace=wrap;shadow=0;" parent="78961159f06e98e8-56" vertex="1">
                    <mxGeometry y="130" width="160" height="26" as="geometry"/>
                </mxCell>
                <mxCell id="78961159f06e98e8-61" value="password" style="text;html=1;strokeColor=#636363;fillColor=#FFFFFF;align=left;verticalAlign=top;spacingLeft=4;spacingRight=4;overflow=hidden;rotatable=0;points=[[0,0.5],[1,0.5]];portConstraint=eastwest;labelBorderColor=none;labelBackgroundColor=#B5B5B5;fontColor=#000000;whiteSpace=wrap;shadow=0;" parent="78961159f06e98e8-56" vertex="1">
                    <mxGeometry y="156" width="160" height="26" as="geometry"/>
                </mxCell>
                <mxCell id="ghc3xlel7lcxxB09unH8-2" value="role" style="text;html=1;strokeColor=#636363;fillColor=#FFFFFF;align=left;verticalAlign=top;spacingLeft=4;spacingRight=4;overflow=hidden;rotatable=0;points=[[0,0.5],[1,0.5]];portConstraint=eastwest;labelBorderColor=none;labelBackgroundColor=#B5B5B5;fontColor=#000000;whiteSpace=wrap;shadow=0;" parent="78961159f06e98e8-56" vertex="1">
                    <mxGeometry y="182" width="160" height="26" as="geometry"/>
                </mxCell>
                <mxCell id="78961159f06e98e8-64" value="" style="line;html=1;strokeWidth=1;fillColor=#FFFFFF;align=left;verticalAlign=middle;spacingTop=-1;spacingLeft=3;spacingRight=3;rotatable=0;labelPosition=right;points=[];portConstraint=eastwest;labelBorderColor=none;labelBackgroundColor=#B5B5B5;fontColor=#000000;whiteSpace=wrap;strokeColor=#636363;shadow=0;" parent="78961159f06e98e8-56" vertex="1">
                    <mxGeometry y="208" width="160" height="8" as="geometry"/>
                </mxCell>
                <mxCell id="78961159f06e98e8-65" value="is_admin" style="text;html=1;strokeColor=#636363;fillColor=#FFFFFF;align=left;verticalAlign=top;spacingLeft=4;spacingRight=4;overflow=hidden;rotatable=0;points=[[0,0.5],[1,0.5]];portConstraint=eastwest;labelBorderColor=none;labelBackgroundColor=#B5B5B5;fontColor=#000000;whiteSpace=wrap;shadow=0;" parent="78961159f06e98e8-56" vertex="1">
                    <mxGeometry y="216" width="160" height="26" as="geometry"/>
                </mxCell>
                <mxCell id="78961159f06e98e8-66" value="is_guest" style="text;html=1;strokeColor=#636363;fillColor=#FFFFFF;align=left;verticalAlign=top;spacingLeft=4;spacingRight=4;overflow=hidden;rotatable=0;points=[[0,0.5],[1,0.5]];portConstraint=eastwest;labelBorderColor=none;labelBackgroundColor=#B5B5B5;fontColor=#000000;whiteSpace=wrap;shadow=0;" parent="78961159f06e98e8-56" vertex="1">
                    <mxGeometry y="242" width="160" height="26" as="geometry"/>
                </mxCell>
                <mxCell id="78961159f06e98e8-68" value="is_authorized_user" style="text;html=1;strokeColor=#636363;fillColor=#FFFFFF;align=left;verticalAlign=top;spacingLeft=4;spacingRight=4;overflow=hidden;rotatable=0;points=[[0,0.5],[1,0.5]];portConstraint=eastwest;labelBorderColor=none;labelBackgroundColor=#B5B5B5;fontColor=#000000;whiteSpace=wrap;shadow=0;" parent="78961159f06e98e8-56" vertex="1">
                    <mxGeometry y="268" width="160" height="26" as="geometry"/>
                </mxCell>
                <mxCell id="ghc3xlel7lcxxB09unH8-4" value="" style="edgeStyle=orthogonalEdgeStyle;rounded=0;orthogonalLoop=1;jettySize=auto;html=1;entryX=1;entryY=0.5;entryDx=0;entryDy=0;exitX=0;exitY=0.5;exitDx=0;exitDy=0;labelBorderColor=none;labelBackgroundColor=#B5B5B5;fontColor=#000000;strokeColor=#636363;shadow=0;fillColor=#FFFFFF;" parent="1" source="78961159f06e98e8-84" target="78961159f06e98e8-57" edge="1">
                    <mxGeometry relative="1" as="geometry"/>
                </mxCell>
                <mxCell id="78961159f06e98e8-82" value="Follow" style="swimlane;html=1;fontStyle=1;align=center;verticalAlign=top;childLayout=stackLayout;horizontal=1;startSize=26;horizontalStack=0;resizeParent=1;resizeLast=0;collapsible=1;marginBottom=0;swimlaneFillColor=#ffffff;rounded=0;shadow=0;comic=0;labelBackgroundColor=#B5B5B5;strokeWidth=1;fillColor=#FFFFFF;fontFamily=Verdana;fontSize=12;labelBorderColor=none;fontColor=#000000;whiteSpace=wrap;strokeColor=#636363;" parent="1" vertex="1">
                    <mxGeometry x="320" y="440" width="160" height="118" as="geometry"/>
                </mxCell>
                <mxCell id="78961159f06e98e8-83" value="user= ForeignKey(User)" style="text;html=1;strokeColor=#636363;fillColor=#FFFFFF;align=left;verticalAlign=top;spacingLeft=4;spacingRight=4;overflow=hidden;rotatable=0;points=[[0,0.5],[1,0.5]];portConstraint=eastwest;labelBorderColor=none;labelBackgroundColor=#B5B5B5;fontColor=#000000;whiteSpace=wrap;shadow=0;" parent="78961159f06e98e8-82" vertex="1">
                    <mxGeometry y="26" width="160" height="26" as="geometry"/>
                </mxCell>
                <mxCell id="78961159f06e98e8-84" value="following= ForeignKey(User)" style="text;html=1;strokeColor=#636363;fillColor=#FFFFFF;align=left;verticalAlign=top;spacingLeft=4;spacingRight=4;overflow=hidden;rotatable=0;points=[[0,0.5],[1,0.5]];portConstraint=eastwest;labelBorderColor=none;labelBackgroundColor=#B5B5B5;fontColor=#000000;whiteSpace=wrap;shadow=0;" parent="78961159f06e98e8-82" vertex="1">
                    <mxGeometry y="52" width="160" height="48" as="geometry"/>
                </mxCell>
                <mxCell id="78961159f06e98e8-95" value="Favorites" style="swimlane;html=1;fontStyle=1;align=center;verticalAlign=top;childLayout=stackLayout;horizontal=1;startSize=26;horizontalStack=0;resizeParent=1;resizeLast=0;collapsible=1;marginBottom=0;swimlaneFillColor=#ffffff;rounded=0;shadow=0;comic=0;labelBackgroundColor=#B5B5B5;strokeWidth=1;fillColor=#FFFFFF;fontFamily=Verdana;fontSize=12;labelBorderColor=none;fontColor=#000000;whiteSpace=wrap;strokeColor=#636363;" parent="1" vertex="1">
                    <mxGeometry x="560" y="440" width="180" height="110" as="geometry"/>
                </mxCell>
                <mxCell id="78961159f06e98e8-97" value="recipes=ForeignKey(Recipe)" style="text;html=1;strokeColor=#636363;fillColor=#FFFFFF;align=left;verticalAlign=top;spacingLeft=4;spacingRight=4;overflow=hidden;rotatable=0;points=[[0,0.5],[1,0.5]];portConstraint=eastwest;labelBorderColor=none;labelBackgroundColor=#B5B5B5;fontColor=#000000;whiteSpace=wrap;shadow=0;" parent="78961159f06e98e8-95" vertex="1">
                    <mxGeometry y="26" width="180" height="44" as="geometry"/>
                </mxCell>
                <mxCell id="78961159f06e98e8-98" value="user=ForeignKey(User)" style="text;html=1;strokeColor=#636363;fillColor=#FFFFFF;align=left;verticalAlign=top;spacingLeft=4;spacingRight=4;overflow=hidden;rotatable=0;points=[[0,0.5],[1,0.5]];portConstraint=eastwest;labelBorderColor=none;labelBackgroundColor=#B5B5B5;fontColor=#000000;whiteSpace=wrap;shadow=0;" parent="78961159f06e98e8-95" vertex="1">
                    <mxGeometry y="70" width="180" height="38" as="geometry"/>
                </mxCell>
                <mxCell id="78961159f06e98e8-108" value="Shoping_list" style="swimlane;html=1;fontStyle=1;align=center;verticalAlign=top;childLayout=stackLayout;horizontal=1;startSize=26;horizontalStack=0;resizeParent=1;resizeLast=0;collapsible=1;marginBottom=0;swimlaneFillColor=#ffffff;rounded=0;shadow=0;comic=0;labelBackgroundColor=#B5B5B5;strokeWidth=1;fillColor=#FFFFFF;fontFamily=Verdana;fontSize=12;labelBorderColor=none;fontColor=#000000;whiteSpace=wrap;strokeColor=#636363;" parent="1" vertex="1">
                    <mxGeometry x="800" y="402.99999999999983" width="160" height="166" as="geometry"/>
                </mxCell>
                <mxCell id="78961159f06e98e8-109" value="recipe_id=&lt;br&gt;ForeignKey(Recipe)" style="text;html=1;strokeColor=#636363;fillColor=#FFFFFF;align=left;verticalAlign=top;spacingLeft=4;spacingRight=4;overflow=hidden;rotatable=0;points=[[0,0.5],[1,0.5]];portConstraint=eastwest;labelBorderColor=none;labelBackgroundColor=#B5B5B5;fontColor=#000000;whiteSpace=wrap;shadow=0;" parent="78961159f06e98e8-108" vertex="1">
                    <mxGeometry y="26" width="160" height="54" as="geometry"/>
                </mxCell>
                <mxCell id="78961159f06e98e8-110" value="user=ForeignKey(user)" style="text;html=1;strokeColor=#636363;fillColor=#FFFFFF;align=left;verticalAlign=top;spacingLeft=4;spacingRight=4;overflow=hidden;rotatable=0;points=[[0,0.5],[1,0.5]];portConstraint=eastwest;labelBorderColor=none;labelBackgroundColor=#B5B5B5;fontColor=#000000;whiteSpace=wrap;shadow=0;" parent="78961159f06e98e8-108" vertex="1">
                    <mxGeometry y="80" width="160" height="26" as="geometry"/>
                </mxCell>
                <mxCell id="78961159f06e98e8-116" value="" style="line;html=1;strokeWidth=1;fillColor=#FFFFFF;align=left;verticalAlign=middle;spacingTop=-1;spacingLeft=3;spacingRight=3;rotatable=0;labelPosition=right;points=[];portConstraint=eastwest;labelBorderColor=none;labelBackgroundColor=#B5B5B5;fontColor=#000000;whiteSpace=wrap;strokeColor=#636363;shadow=0;" parent="78961159f06e98e8-108" vertex="1">
                    <mxGeometry y="106" width="160" height="8" as="geometry"/>
                </mxCell>
                <mxCell id="78961159f06e98e8-117" value="to_clear" style="text;html=1;strokeColor=#636363;fillColor=#FFFFFF;align=left;verticalAlign=top;spacingLeft=4;spacingRight=4;overflow=hidden;rotatable=0;points=[[0,0.5],[1,0.5]];portConstraint=eastwest;labelBorderColor=none;labelBackgroundColor=#B5B5B5;fontColor=#000000;whiteSpace=wrap;shadow=0;" parent="78961159f06e98e8-108" vertex="1">
                    <mxGeometry y="114" width="160" height="26" as="geometry"/>
                </mxCell>
                <mxCell id="78961159f06e98e8-120" value="validate: not is_guest" style="text;html=1;strokeColor=#636363;fillColor=#FFFFFF;align=left;verticalAlign=top;spacingLeft=4;spacingRight=4;overflow=hidden;rotatable=0;points=[[0,0.5],[1,0.5]];portConstraint=eastwest;labelBorderColor=none;labelBackgroundColor=#B5B5B5;fontColor=#000000;whiteSpace=wrap;shadow=0;" parent="78961159f06e98e8-108" vertex="1">
                    <mxGeometry y="140" width="160" height="26" as="geometry"/>
                </mxCell>
                <mxCell id="ghc3xlel7lcxxB09unH8-5" value="" style="edgeStyle=orthogonalEdgeStyle;rounded=0;orthogonalLoop=1;jettySize=auto;html=1;entryX=1;entryY=0.5;entryDx=0;entryDy=0;labelBorderColor=none;labelBackgroundColor=#B5B5B5;fontColor=#000000;strokeColor=#636363;shadow=0;fillColor=#FFFFFF;" parent="1" source="78961159f06e98e8-83" target="78961159f06e98e8-57" edge="1">
                    <mxGeometry relative="1" as="geometry"/>
                </mxCell>
                <mxCell id="ghc3xlel7lcxxB09unH8-15" style="edgeStyle=orthogonalEdgeStyle;rounded=0;orthogonalLoop=1;jettySize=auto;html=1;exitX=0;exitY=0.5;exitDx=0;exitDy=0;entryX=1;entryY=0.5;entryDx=0;entryDy=0;labelBorderColor=none;labelBackgroundColor=#B5B5B5;fontColor=#000000;strokeColor=#636363;shadow=0;fillColor=#FFFFFF;" parent="1" source="ghc3xlel7lcxxB09unH8-13" target="78961159f06e98e8-31" edge="1">
                    <mxGeometry relative="1" as="geometry"/>
                </mxCell>
                <mxCell id="tTol9lg7dFnoX-hlyUY5-1" style="edgeStyle=orthogonalEdgeStyle;rounded=0;orthogonalLoop=1;jettySize=auto;html=1;exitX=0;exitY=0.5;exitDx=0;exitDy=0;entryX=0;entryY=0.5;entryDx=0;entryDy=0;labelBorderColor=none;labelBackgroundColor=#B5B5B5;fontColor=#000000;strokeColor=#636363;shadow=0;fillColor=#FFFFFF;" parent="1" source="78961159f06e98e8-24" target="78961159f06e98e8-57" edge="1">
                    <mxGeometry relative="1" as="geometry"/>
                </mxCell>
                <mxCell id="tTol9lg7dFnoX-hlyUY5-2" value="Sum_ingredients" style="swimlane;html=1;fontStyle=1;align=center;verticalAlign=top;childLayout=stackLayout;horizontal=1;startSize=26;horizontalStack=0;resizeParent=1;resizeLast=0;collapsible=1;marginBottom=0;swimlaneFillColor=#ffffff;rounded=0;shadow=0;comic=0;labelBackgroundColor=#B5B5B5;strokeWidth=1;fillColor=#FFFFFF;fontFamily=Verdana;fontSize=12;labelBorderColor=none;fontColor=#000000;whiteSpace=wrap;strokeColor=#636363;" parent="1" vertex="1">
                    <mxGeometry x="560" y="110" width="160" height="170" as="geometry"/>
                </mxCell>
                <mxCell id="tTol9lg7dFnoX-hlyUY5-3" value="recipe_id=&lt;br&gt;ForeignKey(Recipe)" style="text;html=1;strokeColor=#636363;fillColor=#FFFFFF;align=left;verticalAlign=top;spacingLeft=4;spacingRight=4;overflow=hidden;rotatable=0;points=[[0,0.5],[1,0.5]];portConstraint=eastwest;labelBorderColor=none;labelBackgroundColor=#B5B5B5;fontColor=#000000;whiteSpace=wrap;shadow=0;" parent="tTol9lg7dFnoX-hlyUY5-2" vertex="1">
                    <mxGeometry y="26" width="160" height="54" as="geometry"/>
                </mxCell>
                <mxCell id="tTol9lg7dFnoX-hlyUY5-4" value="ingredient_name=&lt;br&gt;ForeignKey(Ingredient)" style="text;html=1;strokeColor=#636363;fillColor=#FFFFFF;align=left;verticalAlign=top;spacingLeft=4;spacingRight=4;overflow=hidden;rotatable=0;points=[[0,0.5],[1,0.5]];portConstraint=eastwest;labelBorderColor=none;labelBackgroundColor=#B5B5B5;fontColor=#000000;whiteSpace=wrap;shadow=0;" parent="tTol9lg7dFnoX-hlyUY5-2" vertex="1">
                    <mxGeometry y="80" width="160" height="50" as="geometry"/>
                </mxCell>
                <mxCell id="tTol9lg7dFnoX-hlyUY5-9" value="count ?" style="text;html=1;strokeColor=#636363;fillColor=#FFFFFF;align=left;verticalAlign=top;spacingLeft=4;spacingRight=4;overflow=hidden;rotatable=0;points=[[0,0.5],[1,0.5]];portConstraint=eastwest;labelBorderColor=none;labelBackgroundColor=#B5B5B5;fontColor=#000000;whiteSpace=wrap;shadow=0;" parent="tTol9lg7dFnoX-hlyUY5-2" vertex="1">
                    <mxGeometry y="130" width="160" height="34" as="geometry"/>
                </mxCell>
                <mxCell id="tTol9lg7dFnoX-hlyUY5-6" style="edgeStyle=orthogonalEdgeStyle;rounded=0;orthogonalLoop=1;jettySize=auto;html=1;exitX=0;exitY=0.5;exitDx=0;exitDy=0;labelBorderColor=none;labelBackgroundColor=#B5B5B5;fontColor=#000000;strokeColor=#636363;shadow=0;fillColor=#FFFFFF;" parent="1" source="tTol9lg7dFnoX-hlyUY5-3" target="78961159f06e98e8-21" edge="1">
                    <mxGeometry relative="1" as="geometry"/>
                </mxCell>
                <mxCell id="tTol9lg7dFnoX-hlyUY5-8" style="edgeStyle=orthogonalEdgeStyle;rounded=0;orthogonalLoop=1;jettySize=auto;html=1;exitX=1;exitY=0.5;exitDx=0;exitDy=0;labelBorderColor=none;labelBackgroundColor=#B5B5B5;fontColor=#000000;strokeColor=#636363;shadow=0;fillColor=#FFFFFF;" parent="1" source="tTol9lg7dFnoX-hlyUY5-4" target="78961159f06e98e8-44" edge="1">
                    <mxGeometry relative="1" as="geometry"/>
                </mxCell>
                <mxCell id="lTvlNWa3KyWWzM1s08XT-2" style="edgeStyle=orthogonalEdgeStyle;rounded=0;orthogonalLoop=1;jettySize=auto;html=1;exitX=0;exitY=0.5;exitDx=0;exitDy=0;entryX=1;entryY=0.5;entryDx=0;entryDy=0;labelBorderColor=none;labelBackgroundColor=#B5B5B5;fontColor=#000000;strokeColor=#636363;shadow=0;fillColor=#FFFFFF;" parent="1" source="78961159f06e98e8-97" target="78961159f06e98e8-21" edge="1">
                    <mxGeometry relative="1" as="geometry"/>
                </mxCell>
                <mxCell id="lTvlNWa3KyWWzM1s08XT-3" style="edgeStyle=orthogonalEdgeStyle;rounded=0;orthogonalLoop=1;jettySize=auto;html=1;exitX=0;exitY=0.5;exitDx=0;exitDy=0;entryX=1;entryY=0.5;entryDx=0;entryDy=0;labelBorderColor=none;labelBackgroundColor=#B5B5B5;fontColor=#000000;strokeColor=#636363;shadow=0;fillColor=#FFFFFF;" parent="1" source="78961159f06e98e8-98" target="78961159f06e98e8-57" edge="1">
                    <mxGeometry relative="1" as="geometry">
                        <Array as="points">
                            <mxPoint x="560" y="505"/>
                            <mxPoint x="520" y="505"/>
                            <mxPoint x="520" y="570"/>
                            <mxPoint x="280" y="570"/>
                            <mxPoint x="280" y="346"/>
                        </Array>
                    </mxGeometry>
                </mxCell>
                <mxCell id="lTvlNWa3KyWWzM1s08XT-6" style="edgeStyle=orthogonalEdgeStyle;rounded=0;orthogonalLoop=1;jettySize=auto;html=1;exitX=0;exitY=0.5;exitDx=0;exitDy=0;labelBorderColor=none;labelBackgroundColor=#B5B5B5;fontColor=#000000;strokeColor=#636363;shadow=0;fillColor=#FFFFFF;" parent="1" source="78961159f06e98e8-110" target="78961159f06e98e8-57" edge="1">
                    <mxGeometry relative="1" as="geometry">
                        <Array as="points">
                            <mxPoint x="770" y="496"/>
                            <mxPoint x="770" y="400"/>
                            <mxPoint x="280" y="400"/>
                            <mxPoint x="280" y="346"/>
                        </Array>
                    </mxGeometry>
                </mxCell>
                <mxCell id="lTvlNWa3KyWWzM1s08XT-7" style="edgeStyle=orthogonalEdgeStyle;rounded=0;orthogonalLoop=1;jettySize=auto;html=1;exitX=0;exitY=0.5;exitDx=0;exitDy=0;entryX=1;entryY=0.5;entryDx=0;entryDy=0;labelBorderColor=none;labelBackgroundColor=#B5B5B5;fontColor=#000000;strokeColor=#636363;shadow=0;fillColor=#FFFFFF;" parent="1" source="78961159f06e98e8-109" target="78961159f06e98e8-21" edge="1">
                    <mxGeometry relative="1" as="geometry">
                        <Array as="points">
                            <mxPoint x="790" y="456"/>
                            <mxPoint x="790" y="360"/>
                            <mxPoint x="500" y="360"/>
                            <mxPoint x="500" y="149"/>
                        </Array>
                    </mxGeometry>
                </mxCell>
            </root>
        </mxGraphModel>
    </diagram>
</mxfile>